<svg width="66" height="66" viewBox="0 0 66 66" fill="none" xmlns="http://www.w3.org/2000/svg">
<path d="M58.4102 10.1851C56.8773 8.65224 55.0573 7.43644 53.0543 6.60721C51.0513 5.77799 48.9046 5.3516 46.7367 5.35242C44.5689 5.35323 42.4225 5.78123 40.4201 6.61196C38.4177 7.44268 36.5987 8.65985 35.0669 10.1939L33.0675 12.2177L31.0846 10.1983L31.0717 10.1854C29.5396 8.65321 27.7206 7.43782 25.7187 6.60861C23.7169 5.7794 21.5713 5.35261 19.4044 5.35261C17.2376 5.35261 15.092 5.7794 13.0901 6.60861C11.0883 7.43782 9.2693 8.65321 7.73713 10.1854L6.84639 11.0761C3.75205 14.1705 2.01367 18.3673 2.01367 22.7434C2.01367 27.1194 3.75205 31.3163 6.84639 34.4106L30.3554 57.9194L33.0102 60.7009L33.0735 60.6375L33.1422 60.7062L35.6296 58.0818L59.3009 34.4102C62.3906 31.3134 64.1258 27.1175 64.1258 22.743C64.1258 18.3685 62.3906 14.1726 59.3009 11.0757L58.4102 10.1851ZM56.3835 31.4935L33.0735 54.804L9.76302 31.4935C7.44228 29.1727 6.1385 26.0251 6.1385 22.7431C6.1385 19.461 7.44228 16.3134 9.76302 13.9926L10.6539 13.1019C12.9735 10.7823 16.1192 9.47861 19.3997 9.47738C22.6801 9.47614 25.8268 10.7775 28.1481 13.0953L33.0586 18.0952L37.9923 13.1019C39.1415 11.9528 40.5057 11.0412 42.0071 10.4193C43.5085 9.7974 45.1177 9.47731 46.7428 9.47731C48.3679 9.47731 49.9771 9.7974 51.4785 10.4193C52.9799 11.0412 54.3442 11.9528 55.4933 13.1019L56.384 13.9925C58.7013 16.3152 60.0026 19.4622 60.0025 22.7431C60.0024 26.024 58.7009 29.1709 56.3835 31.4935Z" fill="black"/>
</svg>
