<svg width="66" height="66" viewBox="0 0 66 66" fill="none" xmlns="http://www.w3.org/2000/svg">
<path d="M61.2205 28.787C51.898 20.9385 34.969 6.31675 34.8013 6.16825L33 4.62L31.207 6.16825C31.0365 6.314 14.0992 20.9302 4.642 28.8502C4.05364 29.3709 3.5812 30.0093 3.25528 30.7242C2.92935 31.439 2.75721 32.2144 2.75 33C2.75 34.4587 3.32946 35.8576 4.36091 36.8891C5.39236 37.9205 6.79131 38.5 8.25 38.5H11V55C11 56.4587 11.5795 57.8576 12.6109 58.8891C13.6424 59.9205 15.0413 60.5 16.5 60.5H49.5C50.9587 60.5 52.3576 59.9205 53.3891 58.8891C54.4205 57.8576 55 56.4587 55 55V38.5H57.75C59.2087 38.5 60.6076 37.9205 61.6391 36.8891C62.6705 35.8576 63.25 34.4587 63.25 33C63.25 31.3555 62.4937 29.8072 61.2205 28.787ZM38.5 55H27.5V41.25H38.5V55ZM49.5 33L49.5055 55H41.25V38.5H24.75V55H16.5V33H8.24725C15.851 26.642 28.3635 15.8757 33 11.88C37.6365 15.8757 50.1435 26.6392 57.75 33.0027L49.5 33Z" fill="black"/>
</svg>
