<svg width="66" height="66" viewBox="0 0 66 66" fill="none" xmlns="http://www.w3.org/2000/svg">
<path fill-rule="evenodd" clip-rule="evenodd" d="M19.9774 45.144L19.1771 54.7759C19.1625 54.9438 19.1986 55.1123 19.2808 55.2595C19.363 55.4066 19.4875 55.5257 19.6382 55.6013C19.7889 55.6769 19.9588 55.7054 20.1259 55.6833C20.2931 55.6611 20.4497 55.5893 20.5755 55.4771L29.6917 47.3756L32.1214 47.4292L33 47.4375C39.9919 47.4375 45.7339 45.6225 49.5825 42.5824C53.2538 39.6866 55.6875 35.3224 55.6875 28.875C55.6875 22.4276 53.2538 18.0675 49.5825 15.1676C45.7339 12.1275 39.9919 10.3125 33 10.3125C26.0081 10.3125 20.2661 12.1275 16.4175 15.1676C12.7463 18.0675 10.3125 22.4276 10.3125 28.875C10.3125 35.673 13.0185 40.1857 17.1105 43.098L19.9774 45.144ZM24.684 60.0971L31.9853 53.6126C32.318 53.6209 32.6562 53.625 33 53.625C48.9473 53.625 61.875 45.375 61.875 28.875C61.875 12.375 48.9473 4.125 33 4.125C17.0528 4.125 4.125 12.375 4.125 28.875C4.125 37.6076 7.74675 44.0303 13.5176 48.1388L13.0103 54.2603C12.8938 55.66 13.1995 57.0626 13.8877 58.287C14.576 59.5114 15.6153 60.5016 16.8716 61.1297C18.1279 61.7579 19.5436 61.9953 20.9361 61.8112C22.3286 61.6271 23.634 61.0301 24.684 60.0971Z" fill="black"/>
</svg>
