<svg width="66" height="66" viewBox="0 0 66 66" fill="none" xmlns="http://www.w3.org/2000/svg">
<path d="M8.25 17.1875C8.25 14.8171 9.19163 12.5438 10.8677 10.8677C12.5438 9.19163 14.8171 8.25 17.1875 8.25H48.8125C51.1829 8.25 53.4562 9.19163 55.1323 10.8677C56.8084 12.5438 57.75 14.8171 57.75 17.1875V48.8125C57.75 51.1829 56.8084 53.4562 55.1323 55.1323C53.4562 56.8084 51.1829 57.75 48.8125 57.75H17.1875C14.8171 57.75 12.5438 56.8084 10.8677 55.1323C9.19163 53.4562 8.25 51.1829 8.25 48.8125V17.1875ZM17.1875 12.375C15.9111 12.375 14.6871 12.882 13.7845 13.7845C12.882 14.6871 12.375 15.9111 12.375 17.1875V23.375H23.375V12.375H17.1875ZM12.375 27.5V38.5H23.375V27.5H12.375ZM27.5 27.5V38.5H38.5V27.5H27.5ZM42.625 27.5V38.5H53.625V27.5H42.625ZM38.5 42.625H27.5V53.625H38.5V42.625ZM42.625 53.625H48.8125C50.0889 53.625 51.3129 53.118 52.2155 52.2155C53.118 51.3129 53.625 50.0889 53.625 48.8125V42.625H42.625V53.625ZM42.625 23.375H53.625V17.1875C53.625 15.9111 53.118 14.6871 52.2155 13.7845C51.3129 12.882 50.0889 12.375 48.8125 12.375H42.625V23.375ZM38.5 12.375H27.5V23.375H38.5V12.375ZM12.375 42.625V48.8125C12.375 51.469 14.531 53.625 17.1875 53.625H23.375V42.625H12.375Z" fill="black"/>
</svg>
