<svg width="118" height="71" viewBox="0 0 118 71" fill="none" xmlns="http://www.w3.org/2000/svg">
<path d="M18.5459 41.869C18.5459 41.617 18.6269 41.41 18.7889 41.248C18.9329 41.086 19.1129 41.005 19.3289 41.005C19.5269 41.005 19.6799 41.059 19.7879 41.167C19.7879 42.157 20.1029 43.012 20.7329 43.732C21.3809 44.452 22.2359 44.992 23.2979 45.352V27.964C21.5339 28.414 20.6519 29.152 20.6519 30.178C20.6519 30.52 20.7059 30.853 20.8139 31.177C20.7059 31.393 20.4629 31.501 20.0849 31.501C19.7069 31.501 19.3829 31.366 19.1129 31.096C18.8429 30.826 18.7079 30.466 18.7079 30.016C18.7079 29.206 19.1129 28.495 19.9229 27.883C20.7509 27.271 21.8759 26.821 23.2979 26.533V25.291C23.2979 24.751 23.4329 24.346 23.7029 24.076C23.9729 23.788 24.3059 23.644 24.7019 23.644C25.0979 23.644 25.4399 23.77 25.7279 24.022V26.263C25.9079 26.245 26.1779 26.236 26.5379 26.236C29.5259 26.236 31.9649 27.082 33.8549 28.774C34.7909 29.638 35.5199 30.79 36.0419 32.23C36.5819 33.652 36.8519 35.308 36.8519 37.198C36.8519 40.474 35.8799 42.958 33.9359 44.65C32.0099 46.324 29.4449 47.161 26.2409 47.161C23.8109 47.161 21.9209 46.63 20.5709 45.568C19.2209 44.506 18.5459 43.273 18.5459 41.869ZM26.6729 27.559L25.8359 27.586V45.811H26.2409C28.7069 45.811 30.6779 45.127 32.1539 43.759C33.6299 42.391 34.3679 40.186 34.3679 37.144C34.3679 34.084 33.6749 31.726 32.2889 30.07C30.9029 28.396 29.0309 27.559 26.6729 27.559ZM50.0802 39.925C50.4582 39.925 50.6472 40.213 50.6472 40.789C50.6472 42.121 50.1792 43.336 49.2432 44.434C48.3252 45.532 46.9212 46.081 45.0312 46.081C43.1412 46.081 41.6202 45.577 40.4682 44.569C39.3342 43.543 38.7672 42.049 38.7672 40.087C38.7672 38.107 39.2712 36.568 40.2792 35.47C41.2872 34.354 42.5742 33.796 44.1402 33.796C45.2742 33.796 46.1022 34.102 46.6242 34.714C47.1462 35.308 47.4072 36.019 47.4072 36.847C47.4072 38.197 46.8402 39.322 45.7062 40.222C44.5902 41.104 43.1592 41.545 41.4132 41.545C41.5752 42.697 41.9892 43.57 42.6552 44.164C43.3392 44.74 44.2302 45.028 45.3282 45.028C46.4442 45.028 47.4432 44.614 48.3252 43.786C49.2252 42.94 49.6752 41.707 49.6752 40.087C49.6932 39.979 49.8282 39.925 50.0802 39.925ZM41.3322 40.303V40.546C42.4482 40.402 43.4112 40.051 44.2212 39.493C45.0492 38.935 45.4632 38.107 45.4632 37.009C45.4632 36.307 45.3102 35.776 45.0042 35.416C44.6982 35.038 44.2662 34.849 43.7082 34.849C42.8622 34.849 42.2502 35.263 41.8722 36.091C41.5122 36.919 41.3322 38.323 41.3322 40.303ZM49.4654 35.443C49.4654 34.903 49.6004 34.498 49.8704 34.228C50.1404 33.94 50.4824 33.796 50.8964 33.796C51.3104 33.796 51.6434 33.922 51.8954 34.174V39.898C51.8954 43.39 52.9304 45.136 55.0004 45.136C55.4504 45.136 55.8464 45.001 56.1884 44.731C55.4324 44.011 54.8654 43.111 54.4874 42.031C54.1094 40.951 53.9204 39.907 53.9204 38.899C53.9204 37.117 54.1724 35.776 54.6764 34.876C55.1984 33.958 56.0714 33.499 57.2954 33.499C58.1414 33.499 58.8164 33.787 59.3204 34.363C59.8424 34.939 60.1034 35.704 60.1034 36.658C60.1034 40.096 59.3564 42.706 57.8624 44.488C58.4744 44.848 59.1584 45.028 59.9144 45.028C60.9224 45.028 61.7504 44.596 62.3984 43.732C63.0464 42.868 63.3704 41.545 63.3704 39.763C63.3884 39.655 63.5234 39.601 63.7754 39.601C64.0994 39.601 64.2614 40.024 64.2614 40.87C64.2614 42.364 63.8834 43.606 63.1274 44.596C62.3714 45.586 61.2194 46.081 59.6714 46.081C58.6274 46.081 57.7274 45.829 56.9714 45.325C56.2514 45.829 55.4864 46.081 54.6764 46.081C53.1284 46.081 51.8684 45.523 50.8964 44.407C49.9424 43.291 49.4654 41.743 49.4654 39.763V35.443ZM56.8904 34.957C55.8284 34.957 55.2974 36.118 55.2974 38.44C55.2974 40.762 55.8464 42.535 56.9444 43.759C57.6284 42.481 57.9704 40.348 57.9704 37.36C57.9704 35.758 57.6104 34.957 56.8904 34.957ZM81.1872 39.844C81.2772 39.736 81.4302 39.682 81.6462 39.682C81.8802 39.682 82.0692 39.763 82.2132 39.925C82.3572 40.087 82.4292 40.393 82.4292 40.843C82.4292 41.293 82.2762 41.896 81.9702 42.652C81.6822 43.39 81.2502 44.137 80.6742 44.893C80.0982 45.631 79.2972 46.243 78.2712 46.729C77.2632 47.215 76.1292 47.458 74.8692 47.458C71.9532 47.458 69.6132 46.522 67.8492 44.65C66.0852 42.76 65.2032 40.078 65.2032 36.604C65.2032 33.112 66.0312 30.493 67.6872 28.747C69.3612 26.983 71.5482 26.101 74.2482 26.101C75.9942 26.101 77.3622 26.551 78.3522 27.451C79.3422 28.351 79.8372 29.35 79.8372 30.448C79.8372 30.898 79.7022 31.258 79.4322 31.528C79.1622 31.798 78.8922 31.933 78.6222 31.933C78.1182 31.933 77.7762 31.825 77.5962 31.609C77.7042 31.339 77.7582 31.006 77.7582 30.61C77.7582 29.638 77.4432 28.864 76.8132 28.288C76.2012 27.712 75.3012 27.424 74.1132 27.424C72.3312 27.424 70.8102 28.279 69.5502 29.989C68.3082 31.681 67.6872 33.931 67.6872 36.739C67.6872 39.547 68.3802 41.815 69.7662 43.543C71.1522 45.253 72.8172 46.108 74.7612 46.108C76.7052 46.108 78.2622 45.523 79.4322 44.353C80.6022 43.165 81.1872 41.662 81.1872 39.844ZM86.619 33.796C88.221 33.796 89.526 34.327 90.534 35.389C91.542 36.451 92.046 37.9 92.046 39.736C92.046 41.554 91.569 43.066 90.615 44.272C89.679 45.478 88.419 46.081 86.835 46.081C85.251 46.081 83.928 45.541 82.866 44.461C81.822 43.363 81.3 41.851 81.3 39.925C81.3 37.981 81.786 36.478 82.758 35.416C83.748 34.336 85.035 33.796 86.619 33.796ZM86.646 34.849C86.16 34.849 85.737 34.975 85.377 35.227C85.035 35.461 84.864 35.803 84.864 36.253C84.864 37.405 85.314 38.512 86.214 39.574C87.114 40.618 88.185 41.311 89.427 41.653C89.463 40.969 89.481 40.384 89.481 39.898C89.481 38.026 89.283 36.721 88.887 35.983C88.491 35.227 87.744 34.849 86.646 34.849ZM83.865 39.898C83.865 41.734 84.09 43.048 84.54 43.84C85.008 44.632 85.764 45.028 86.808 45.028C87.528 45.028 88.077 44.848 88.455 44.488C88.851 44.11 89.121 43.507 89.265 42.679C88.095 42.427 87.015 41.896 86.025 41.086C85.053 40.276 84.342 39.376 83.892 38.386C83.874 38.692 83.865 39.196 83.865 39.898ZM108.507 39.601C108.831 39.601 108.993 40.078 108.993 41.032C108.993 42.562 108.66 43.786 107.994 44.704C107.346 45.622 106.392 46.081 105.132 46.081C103.872 46.081 102.9 45.649 102.216 44.785C101.55 43.921 101.217 42.697 101.217 41.113V37.954C101.217 35.812 100.677 34.741 99.5974 34.741C98.6434 34.741 97.8604 35.227 97.2484 36.199C96.6364 37.171 96.3304 38.8 96.3304 41.086V45.703C96.1504 45.955 95.8354 46.081 95.3854 46.081C94.9354 46.081 94.5754 45.946 94.3054 45.676C94.0354 45.388 93.9004 44.974 93.9004 44.434V34.174C94.0804 33.922 94.4224 33.796 94.9264 33.796C95.8624 33.796 96.3304 34.471 96.3304 35.821C97.0864 34.471 98.2834 33.796 99.9214 33.796C101.091 33.796 102.018 34.165 102.702 34.903C103.404 35.641 103.755 36.703 103.755 38.089V41.923C103.755 42.949 103.917 43.723 104.241 44.245C104.565 44.767 105.042 45.028 105.672 45.028C106.32 45.028 106.887 44.632 107.373 43.84C107.859 43.03 108.102 41.671 108.102 39.763C108.12 39.655 108.255 39.601 108.507 39.601Z" fill="black"/>
</svg>
