<svg width="321" height="91" viewBox="0 0 321 91" fill="none" xmlns="http://www.w3.org/2000/svg">
<path d="M0.0304375 63.208C0.0304375 62.6107 0.222437 62.12 0.606437 61.736C0.947771 61.352 1.37444 61.16 1.88644 61.16C2.35577 61.16 2.71844 61.288 2.97444 61.544C2.97444 63.8907 3.7211 65.9173 5.21444 67.624C6.75044 69.3307 8.7771 70.6107 11.2944 71.464V30.248C7.1131 31.3147 5.02244 33.064 5.02244 35.496C5.02244 36.3067 5.15044 37.096 5.40644 37.864C5.15044 38.376 4.57444 38.632 3.67844 38.632C2.78244 38.632 2.01444 38.312 1.37444 37.672C0.734437 37.032 0.414437 36.1787 0.414437 35.112C0.414437 33.192 1.37444 31.5067 3.29444 30.056C5.2571 28.6053 7.92377 27.5387 11.2944 26.856V23.912C11.2944 22.632 11.6144 21.672 12.2544 21.032C12.8944 20.3493 13.6838 20.008 14.6224 20.008C15.5611 20.008 16.3718 20.3067 17.0544 20.904V26.216C17.4811 26.1733 18.1211 26.152 18.9744 26.152C26.0571 26.152 31.8384 28.1573 36.3184 32.168C38.5371 34.216 40.2651 36.9467 41.5024 40.36C42.7824 43.7307 43.4224 47.656 43.4224 52.136C43.4224 59.9013 41.1184 65.7893 36.5104 69.8C31.9451 73.768 25.8651 75.752 18.2704 75.752C12.5104 75.752 8.03044 74.4933 4.83044 71.976C1.63044 69.4587 0.0304375 66.536 0.0304375 63.208ZM19.2944 29.288L17.3104 29.352V72.552H18.2704C24.1158 72.552 28.7878 70.9307 32.2864 67.688C35.7851 64.4453 37.5344 59.2187 37.5344 52.008C37.5344 44.7547 35.8918 39.1653 32.6064 35.24C29.3211 31.272 24.8838 29.288 19.2944 29.288ZM74.7784 58.6C75.6744 58.6 76.1224 59.2827 76.1224 60.648C76.1224 63.8053 75.0131 66.6853 72.7944 69.288C70.6184 71.8907 67.2904 73.192 62.8104 73.192C58.3304 73.192 54.7251 71.9973 51.9944 69.608C49.3064 67.176 47.9624 63.6347 47.9624 58.984C47.9624 54.2907 49.1571 50.6427 51.5464 48.04C53.9358 45.3947 56.9864 44.072 60.6984 44.072C63.3864 44.072 65.3491 44.7973 66.5864 46.248C67.8238 47.656 68.4424 49.3413 68.4424 51.304C68.4424 54.504 67.0984 57.1707 64.4104 59.304C61.7651 61.3947 58.3731 62.44 54.2344 62.44C54.6184 65.1707 55.5998 67.24 57.1784 68.648C58.7998 70.0133 60.9118 70.696 63.5144 70.696C66.1598 70.696 68.5278 69.7147 70.6184 67.752C72.7518 65.7467 73.8184 62.824 73.8184 58.984C73.8611 58.728 74.1811 58.6 74.7784 58.6ZM54.0424 59.496V60.072C56.6878 59.7307 58.9704 58.8987 60.8904 57.576C62.8531 56.2533 63.8344 54.2907 63.8344 51.688C63.8344 50.024 63.4718 48.7653 62.7464 47.912C62.0211 47.016 60.9971 46.568 59.6744 46.568C57.6691 46.568 56.2184 47.5493 55.3224 49.512C54.4691 51.4747 54.0424 54.8027 54.0424 59.496ZM73.3209 47.976C73.3209 46.696 73.6409 45.736 74.2809 45.096C74.9209 44.4133 75.7316 44.072 76.7129 44.072C77.6943 44.072 78.4836 44.3707 79.0809 44.968V58.536C79.0809 66.8133 81.5343 70.952 86.4409 70.952C87.5076 70.952 88.4463 70.632 89.2569 69.992C87.4649 68.2853 86.1209 66.152 85.2249 63.592C84.3289 61.032 83.8809 58.5573 83.8809 56.168C83.8809 51.944 84.4783 48.7653 85.6729 46.632C86.9103 44.456 88.9796 43.368 91.8809 43.368C93.8863 43.368 95.4863 44.0507 96.6809 45.416C97.9183 46.7813 98.5369 48.5947 98.5369 50.856C98.5369 59.0053 96.7663 65.192 93.2249 69.416C94.6756 70.2693 96.2969 70.696 98.0889 70.696C100.478 70.696 102.441 69.672 103.977 67.624C105.513 65.576 106.281 62.44 106.281 58.216C106.324 57.96 106.644 57.832 107.241 57.832C108.009 57.832 108.393 58.8347 108.393 60.84C108.393 64.3813 107.497 67.3253 105.705 69.672C103.913 72.0187 101.182 73.192 97.5129 73.192C95.0383 73.192 92.9049 72.5947 91.1129 71.4C89.4063 72.5947 87.5929 73.192 85.6729 73.192C82.0036 73.192 79.0169 71.8693 76.7129 69.224C74.4516 66.5787 73.3209 62.9093 73.3209 58.216V47.976ZM90.9209 46.824C88.4036 46.824 87.1449 49.576 87.1449 55.08C87.1449 60.584 88.4463 64.7867 91.0489 67.688C92.6703 64.6587 93.4809 59.6027 93.4809 52.52C93.4809 48.7227 92.6276 46.824 90.9209 46.824ZM148.513 58.408C148.727 58.152 149.089 58.024 149.601 58.024C150.156 58.024 150.604 58.216 150.945 58.6C151.287 58.984 151.457 59.7093 151.457 60.776C151.457 61.8427 151.095 63.272 150.369 65.064C149.687 66.8133 148.663 68.584 147.297 70.376C145.932 72.1253 144.033 73.576 141.601 74.728C139.212 75.88 136.524 76.456 133.537 76.456C126.625 76.456 121.079 74.2373 116.897 69.8C112.716 65.32 110.625 58.9627 110.625 50.728C110.625 42.4507 112.588 36.2427 116.513 32.104C120.481 27.9227 125.665 25.832 132.065 25.832C136.204 25.832 139.447 26.8987 141.793 29.032C144.14 31.1653 145.313 33.5333 145.313 36.136C145.313 37.2027 144.993 38.056 144.353 38.696C143.713 39.336 143.073 39.656 142.433 39.656C141.239 39.656 140.428 39.4 140.001 38.888C140.257 38.248 140.385 37.4587 140.385 36.52C140.385 34.216 139.639 32.3813 138.145 31.016C136.695 29.6507 134.561 28.968 131.745 28.968C127.521 28.968 123.916 30.9947 120.929 35.048C117.985 39.0587 116.513 44.392 116.513 51.048C116.513 57.704 118.156 63.08 121.441 67.176C124.727 71.2293 128.673 73.256 133.281 73.256C137.889 73.256 141.58 71.8693 144.353 69.096C147.127 66.28 148.513 62.7173 148.513 58.408ZM161.389 44.072C165.186 44.072 168.28 45.3307 170.669 47.848C173.058 50.3653 174.253 53.8 174.253 58.152C174.253 62.4613 173.122 66.0453 170.861 68.904C168.642 71.7627 165.656 73.192 161.901 73.192C158.146 73.192 155.01 71.912 152.493 69.352C150.018 66.7493 148.781 63.1653 148.781 58.6C148.781 53.992 149.933 50.4293 152.237 47.912C154.584 45.352 157.634 44.072 161.389 44.072ZM161.453 46.568C160.301 46.568 159.298 46.8667 158.445 47.464C157.634 48.0187 157.229 48.8293 157.229 49.896C157.229 52.6267 158.296 55.2507 160.429 57.768C162.562 60.2427 165.101 61.8853 168.045 62.696C168.13 61.0747 168.173 59.688 168.173 58.536C168.173 54.0987 167.704 51.0053 166.765 49.256C165.826 47.464 164.056 46.568 161.453 46.568ZM154.861 58.536C154.861 62.888 155.394 66.0027 156.461 67.88C157.57 69.7573 159.362 70.696 161.837 70.696C163.544 70.696 164.845 70.2693 165.741 69.416C166.68 68.52 167.32 67.0907 167.661 65.128C164.888 64.5307 162.328 63.272 159.981 61.352C157.677 59.432 155.992 57.2987 154.925 54.952C154.882 55.6773 154.861 56.872 154.861 58.536ZM213.272 57.832C214.04 57.832 214.424 58.9627 214.424 61.224C214.424 64.8507 213.635 67.752 212.056 69.928C210.52 72.104 208.259 73.192 205.272 73.192C202.286 73.192 199.982 72.168 198.36 70.12C196.782 68.072 195.992 65.1707 195.992 61.416V53.928C195.992 48.8507 194.712 46.312 192.152 46.312C189.891 46.312 188.035 47.464 186.584 49.768C185.134 52.072 184.408 55.9333 184.408 61.352V72.296C183.982 72.8933 183.235 73.192 182.168 73.192C181.102 73.192 180.248 72.872 179.608 72.232C178.968 71.5493 178.648 70.568 178.648 69.288V44.968C179.075 44.3707 179.886 44.072 181.08 44.072C183.299 44.072 184.408 45.672 184.408 48.872C186.2 45.672 189.038 44.072 192.92 44.072C195.694 44.072 197.891 44.9467 199.512 46.696C201.176 48.4453 202.008 50.9627 202.008 54.248V63.336C202.008 65.768 202.392 67.6027 203.16 68.84C203.928 70.0773 205.059 70.696 206.552 70.696C208.088 70.696 209.432 69.7573 210.584 67.88C211.736 65.96 212.312 62.7387 212.312 58.216C212.355 57.96 212.675 57.832 213.272 57.832ZM247.085 57.832C247.853 57.832 248.237 58.9627 248.237 61.224C248.237 64.8507 247.448 67.752 245.869 69.928C244.333 72.104 242.072 73.192 239.085 73.192C236.098 73.192 233.794 72.168 232.173 70.12C230.594 68.072 229.805 65.1707 229.805 61.416V53.928C229.805 48.8507 228.525 46.312 225.965 46.312C223.704 46.312 221.848 47.464 220.397 49.768C218.946 52.072 218.221 55.9333 218.221 61.352V72.296C217.794 72.8933 217.048 73.192 215.981 73.192C214.914 73.192 214.061 72.872 213.421 72.232C212.781 71.5493 212.461 70.568 212.461 69.288V44.968C212.888 44.3707 213.698 44.072 214.893 44.072C217.112 44.072 218.221 45.672 218.221 48.872C220.013 45.672 222.85 44.072 226.733 44.072C229.506 44.072 231.704 44.9467 233.325 46.696C234.989 48.4453 235.821 50.9627 235.821 54.248V63.336C235.821 65.768 236.205 67.6027 236.973 68.84C237.741 70.0773 238.872 70.696 240.365 70.696C241.901 70.696 243.245 69.7573 244.397 67.88C245.549 65.96 246.125 62.7387 246.125 58.216C246.168 57.96 246.488 57.832 247.085 57.832ZM273.153 58.6C274.049 58.6 274.497 59.2827 274.497 60.648C274.497 63.8053 273.388 66.6853 271.169 69.288C268.993 71.8907 265.665 73.192 261.185 73.192C256.705 73.192 253.1 71.9973 250.369 69.608C247.681 67.176 246.337 63.6347 246.337 58.984C246.337 54.2907 247.532 50.6427 249.921 48.04C252.311 45.3947 255.361 44.072 259.073 44.072C261.761 44.072 263.724 44.7973 264.961 46.248C266.199 47.656 266.817 49.3413 266.817 51.304C266.817 54.504 265.473 57.1707 262.785 59.304C260.14 61.3947 256.748 62.44 252.609 62.44C252.993 65.1707 253.975 67.24 255.553 68.648C257.175 70.0133 259.287 70.696 261.889 70.696C264.535 70.696 266.903 69.7147 268.993 67.752C271.127 65.7467 272.193 62.824 272.193 58.984C272.236 58.728 272.556 58.6 273.153 58.6ZM252.417 59.496V60.072C255.063 59.7307 257.345 58.8987 259.265 57.576C261.228 56.2533 262.209 54.2907 262.209 51.688C262.209 50.024 261.847 48.7653 261.121 47.912C260.396 47.016 259.372 46.568 258.049 46.568C256.044 46.568 254.593 47.5493 253.697 49.512C252.844 51.4747 252.417 54.8027 252.417 59.496ZM299.152 59.88C300.048 59.88 300.496 60.4987 300.496 61.736C300.496 62.9733 300.24 64.2107 299.728 65.448C299.216 66.6853 298.469 67.9013 297.488 69.096C296.549 70.2907 295.205 71.272 293.456 72.04C291.749 72.808 289.808 73.192 287.632 73.192C282.853 73.192 279.099 71.9973 276.368 69.608C273.68 67.176 272.336 63.6347 272.336 58.984C272.336 54.2907 273.531 50.6427 275.92 48.04C278.309 45.3947 281.36 44.072 285.072 44.072C287.76 44.072 289.723 44.7973 290.96 46.248C292.197 47.656 292.816 49.3413 292.816 51.304C292.816 52.3707 292.496 53.224 291.856 53.864C291.216 54.504 290.597 54.824 290 54.824C288.891 54.824 288.165 54.568 287.824 54.056C288.08 53.416 288.208 52.4987 288.208 51.304C288.208 50.1093 287.803 49.0213 286.992 48.04C286.181 47.0587 285.2 46.568 284.048 46.568C282.043 46.568 280.592 47.5493 279.696 49.512C278.843 51.4747 278.416 54.568 278.416 58.792C278.416 62.9733 279.227 66.0027 280.848 67.88C282.512 69.7573 284.816 70.696 287.76 70.696C290.704 70.696 293.179 69.8 295.184 68.008C297.189 66.1733 298.192 63.592 298.192 60.264C298.235 60.008 298.555 59.88 299.152 59.88ZM298.273 38.504C298.273 37.224 298.593 36.264 299.233 35.624C299.873 34.9413 300.684 34.6 301.665 34.6C302.647 34.6 303.436 34.8987 304.033 35.496V44.968H312.801C313.697 44.968 314.273 45.1387 314.529 45.48C314.828 45.8213 314.977 46.3973 314.977 47.208H304.033V63.336C304.033 65.6827 304.695 67.496 306.017 68.776C307.383 70.056 308.94 70.696 310.689 70.696C313.335 70.696 315.276 69.7147 316.513 67.752C317.751 65.7893 318.369 62.6107 318.369 58.216C318.455 57.96 318.775 57.832 319.329 57.832C320.097 57.832 320.481 58.9627 320.481 61.224C320.481 64.68 319.607 67.5387 317.857 69.8C316.151 72.0613 313.505 73.192 309.921 73.192C306.337 73.192 303.5 72.2533 301.409 70.376C299.319 68.4987 298.273 65.704 298.273 61.992V38.504Z" fill="black"/>
</svg>
