<svg width="321" height="57" viewBox="0 0 321 57" fill="none" xmlns="http://www.w3.org/2000/svg">
<path d="M0.0304375 43.208C0.0304375 42.6107 0.222437 42.12 0.606437 41.736C0.947771 41.352 1.37444 41.16 1.88644 41.16C2.35577 41.16 2.71844 41.288 2.97444 41.544C2.97444 43.8907 3.7211 45.9173 5.21444 47.624C6.75044 49.3307 8.7771 50.6107 11.2944 51.464V10.248C7.1131 11.3147 5.02244 13.064 5.02244 15.496C5.02244 16.3067 5.15044 17.096 5.40644 17.864C5.15044 18.376 4.57444 18.632 3.67844 18.632C2.78244 18.632 2.01444 18.312 1.37444 17.672C0.734437 17.032 0.414437 16.1787 0.414437 15.112C0.414437 13.192 1.37444 11.5067 3.29444 10.056C5.2571 8.60533 7.92377 7.53866 11.2944 6.856V3.912C11.2944 2.632 11.6144 1.672 12.2544 1.032C12.8944 0.34933 13.6838 0.00799561 14.6224 0.00799561C15.5611 0.00799561 16.3718 0.306664 17.0544 0.903999V6.216C17.4811 6.17333 18.1211 6.152 18.9744 6.152C26.0571 6.152 31.8384 8.15733 36.3184 12.168C38.5371 14.216 40.2651 16.9467 41.5024 20.36C42.7824 23.7307 43.4224 27.656 43.4224 32.136C43.4224 39.9013 41.1184 45.7893 36.5104 49.8C31.9451 53.768 25.8651 55.752 18.2704 55.752C12.5104 55.752 8.03044 54.4933 4.83044 51.976C1.63044 49.4587 0.0304375 46.536 0.0304375 43.208ZM19.2944 9.288L17.3104 9.352V52.552H18.2704C24.1158 52.552 28.7878 50.9307 32.2864 47.688C35.7851 44.4453 37.5344 39.2187 37.5344 32.008C37.5344 24.7547 35.8918 19.1653 32.6064 15.24C29.3211 11.272 24.8838 9.288 19.2944 9.288ZM74.7784 38.6C75.6744 38.6 76.1224 39.2827 76.1224 40.648C76.1224 43.8053 75.0131 46.6853 72.7944 49.288C70.6184 51.8907 67.2904 53.192 62.8104 53.192C58.3304 53.192 54.7251 51.9973 51.9944 49.608C49.3064 47.176 47.9624 43.6347 47.9624 38.984C47.9624 34.2907 49.1571 30.6427 51.5464 28.04C53.9358 25.3947 56.9864 24.072 60.6984 24.072C63.3864 24.072 65.3491 24.7973 66.5864 26.248C67.8238 27.656 68.4424 29.3413 68.4424 31.304C68.4424 34.504 67.0984 37.1707 64.4104 39.304C61.7651 41.3947 58.3731 42.44 54.2344 42.44C54.6184 45.1707 55.5998 47.24 57.1784 48.648C58.7998 50.0133 60.9118 50.696 63.5144 50.696C66.1598 50.696 68.5278 49.7147 70.6184 47.752C72.7518 45.7467 73.8184 42.824 73.8184 38.984C73.8611 38.728 74.1811 38.6 74.7784 38.6ZM54.0424 39.496V40.072C56.6878 39.7307 58.9704 38.8987 60.8904 37.576C62.8531 36.2533 63.8344 34.2907 63.8344 31.688C63.8344 30.024 63.4718 28.7653 62.7464 27.912C62.0211 27.016 60.9971 26.568 59.6744 26.568C57.6691 26.568 56.2184 27.5493 55.3224 29.512C54.4691 31.4747 54.0424 34.8027 54.0424 39.496ZM73.3209 27.976C73.3209 26.696 73.6409 25.736 74.2809 25.096C74.9209 24.4133 75.7316 24.072 76.7129 24.072C77.6943 24.072 78.4836 24.3707 79.0809 24.968V38.536C79.0809 46.8133 81.5343 50.952 86.4409 50.952C87.5076 50.952 88.4463 50.632 89.2569 49.992C87.4649 48.2853 86.1209 46.152 85.2249 43.592C84.3289 41.032 83.8809 38.5573 83.8809 36.168C83.8809 31.944 84.4783 28.7653 85.6729 26.632C86.9103 24.456 88.9796 23.368 91.8809 23.368C93.8863 23.368 95.4863 24.0507 96.6809 25.416C97.9183 26.7813 98.5369 28.5947 98.5369 30.856C98.5369 39.0053 96.7663 45.192 93.2249 49.416C94.6756 50.2693 96.2969 50.696 98.0889 50.696C100.478 50.696 102.441 49.672 103.977 47.624C105.513 45.576 106.281 42.44 106.281 38.216C106.324 37.96 106.644 37.832 107.241 37.832C108.009 37.832 108.393 38.8347 108.393 40.84C108.393 44.3813 107.497 47.3253 105.705 49.672C103.913 52.0187 101.182 53.192 97.5129 53.192C95.0383 53.192 92.9049 52.5947 91.1129 51.4C89.4063 52.5947 87.5929 53.192 85.6729 53.192C82.0036 53.192 79.0169 51.8693 76.7129 49.224C74.4516 46.5787 73.3209 42.9093 73.3209 38.216V27.976ZM90.9209 26.824C88.4036 26.824 87.1449 29.576 87.1449 35.08C87.1449 40.584 88.4463 44.7867 91.0489 47.688C92.6703 44.6587 93.4809 39.6027 93.4809 32.52C93.4809 28.7227 92.6276 26.824 90.9209 26.824ZM148.513 38.408C148.727 38.152 149.089 38.024 149.601 38.024C150.156 38.024 150.604 38.216 150.945 38.6C151.287 38.984 151.457 39.7093 151.457 40.776C151.457 41.8427 151.095 43.272 150.369 45.064C149.687 46.8133 148.663 48.584 147.297 50.376C145.932 52.1253 144.033 53.576 141.601 54.728C139.212 55.88 136.524 56.456 133.537 56.456C126.625 56.456 121.079 54.2373 116.897 49.8C112.716 45.32 110.625 38.9627 110.625 30.728C110.625 22.4507 112.588 16.2427 116.513 12.104C120.481 7.92266 125.665 5.832 132.065 5.832C136.204 5.832 139.447 6.89866 141.793 9.032C144.14 11.1653 145.313 13.5333 145.313 16.136C145.313 17.2027 144.993 18.056 144.353 18.696C143.713 19.336 143.073 19.656 142.433 19.656C141.239 19.656 140.428 19.4 140.001 18.888C140.257 18.248 140.385 17.4587 140.385 16.52C140.385 14.216 139.639 12.3813 138.145 11.016C136.695 9.65067 134.561 8.968 131.745 8.968C127.521 8.968 123.916 10.9947 120.929 15.048C117.985 19.0587 116.513 24.392 116.513 31.048C116.513 37.704 118.156 43.08 121.441 47.176C124.727 51.2293 128.673 53.256 133.281 53.256C137.889 53.256 141.58 51.8693 144.353 49.096C147.127 46.28 148.513 42.7173 148.513 38.408ZM161.389 24.072C165.186 24.072 168.28 25.3307 170.669 27.848C173.058 30.3653 174.253 33.8 174.253 38.152C174.253 42.4613 173.122 46.0453 170.861 48.904C168.642 51.7627 165.656 53.192 161.901 53.192C158.146 53.192 155.01 51.912 152.493 49.352C150.018 46.7493 148.781 43.1653 148.781 38.6C148.781 33.992 149.933 30.4293 152.237 27.912C154.584 25.352 157.634 24.072 161.389 24.072ZM161.453 26.568C160.301 26.568 159.298 26.8667 158.445 27.464C157.634 28.0187 157.229 28.8293 157.229 29.896C157.229 32.6267 158.296 35.2507 160.429 37.768C162.562 40.2427 165.101 41.8853 168.045 42.696C168.13 41.0747 168.173 39.688 168.173 38.536C168.173 34.0987 167.704 31.0053 166.765 29.256C165.826 27.464 164.056 26.568 161.453 26.568ZM154.861 38.536C154.861 42.888 155.394 46.0027 156.461 47.88C157.57 49.7573 159.362 50.696 161.837 50.696C163.544 50.696 164.845 50.2693 165.741 49.416C166.68 48.52 167.32 47.0907 167.661 45.128C164.888 44.5307 162.328 43.272 159.981 41.352C157.677 39.432 155.992 37.2987 154.925 34.952C154.882 35.6773 154.861 36.872 154.861 38.536ZM213.272 37.832C214.04 37.832 214.424 38.9627 214.424 41.224C214.424 44.8507 213.635 47.752 212.056 49.928C210.52 52.104 208.259 53.192 205.272 53.192C202.286 53.192 199.982 52.168 198.36 50.12C196.782 48.072 195.992 45.1707 195.992 41.416V33.928C195.992 28.8507 194.712 26.312 192.152 26.312C189.891 26.312 188.035 27.464 186.584 29.768C185.134 32.072 184.408 35.9333 184.408 41.352V52.296C183.982 52.8933 183.235 53.192 182.168 53.192C181.102 53.192 180.248 52.872 179.608 52.232C178.968 51.5493 178.648 50.568 178.648 49.288V24.968C179.075 24.3707 179.886 24.072 181.08 24.072C183.299 24.072 184.408 25.672 184.408 28.872C186.2 25.672 189.038 24.072 192.92 24.072C195.694 24.072 197.891 24.9467 199.512 26.696C201.176 28.4453 202.008 30.9627 202.008 34.248V43.336C202.008 45.768 202.392 47.6027 203.16 48.84C203.928 50.0773 205.059 50.696 206.552 50.696C208.088 50.696 209.432 49.7573 210.584 47.88C211.736 45.96 212.312 42.7387 212.312 38.216C212.355 37.96 212.675 37.832 213.272 37.832ZM247.085 37.832C247.853 37.832 248.237 38.9627 248.237 41.224C248.237 44.8507 247.448 47.752 245.869 49.928C244.333 52.104 242.072 53.192 239.085 53.192C236.098 53.192 233.794 52.168 232.173 50.12C230.594 48.072 229.805 45.1707 229.805 41.416V33.928C229.805 28.8507 228.525 26.312 225.965 26.312C223.704 26.312 221.848 27.464 220.397 29.768C218.946 32.072 218.221 35.9333 218.221 41.352V52.296C217.794 52.8933 217.048 53.192 215.981 53.192C214.914 53.192 214.061 52.872 213.421 52.232C212.781 51.5493 212.461 50.568 212.461 49.288V24.968C212.888 24.3707 213.698 24.072 214.893 24.072C217.112 24.072 218.221 25.672 218.221 28.872C220.013 25.672 222.85 24.072 226.733 24.072C229.506 24.072 231.704 24.9467 233.325 26.696C234.989 28.4453 235.821 30.9627 235.821 34.248V43.336C235.821 45.768 236.205 47.6027 236.973 48.84C237.741 50.0773 238.872 50.696 240.365 50.696C241.901 50.696 243.245 49.7573 244.397 47.88C245.549 45.96 246.125 42.7387 246.125 38.216C246.168 37.96 246.488 37.832 247.085 37.832ZM273.153 38.6C274.049 38.6 274.497 39.2827 274.497 40.648C274.497 43.8053 273.388 46.6853 271.169 49.288C268.993 51.8907 265.665 53.192 261.185 53.192C256.705 53.192 253.1 51.9973 250.369 49.608C247.681 47.176 246.337 43.6347 246.337 38.984C246.337 34.2907 247.532 30.6427 249.921 28.04C252.311 25.3947 255.361 24.072 259.073 24.072C261.761 24.072 263.724 24.7973 264.961 26.248C266.199 27.656 266.817 29.3413 266.817 31.304C266.817 34.504 265.473 37.1707 262.785 39.304C260.14 41.3947 256.748 42.44 252.609 42.44C252.993 45.1707 253.975 47.24 255.553 48.648C257.175 50.0133 259.287 50.696 261.889 50.696C264.535 50.696 266.903 49.7147 268.993 47.752C271.127 45.7467 272.193 42.824 272.193 38.984C272.236 38.728 272.556 38.6 273.153 38.6ZM252.417 39.496V40.072C255.063 39.7307 257.345 38.8987 259.265 37.576C261.228 36.2533 262.209 34.2907 262.209 31.688C262.209 30.024 261.847 28.7653 261.121 27.912C260.396 27.016 259.372 26.568 258.049 26.568C256.044 26.568 254.593 27.5493 253.697 29.512C252.844 31.4747 252.417 34.8027 252.417 39.496ZM299.152 39.88C300.048 39.88 300.496 40.4987 300.496 41.736C300.496 42.9733 300.24 44.2107 299.728 45.448C299.216 46.6853 298.469 47.9013 297.488 49.096C296.549 50.2907 295.205 51.272 293.456 52.04C291.749 52.808 289.808 53.192 287.632 53.192C282.853 53.192 279.099 51.9973 276.368 49.608C273.68 47.176 272.336 43.6347 272.336 38.984C272.336 34.2907 273.531 30.6427 275.92 28.04C278.309 25.3947 281.36 24.072 285.072 24.072C287.76 24.072 289.723 24.7973 290.96 26.248C292.197 27.656 292.816 29.3413 292.816 31.304C292.816 32.3707 292.496 33.224 291.856 33.864C291.216 34.504 290.597 34.824 290 34.824C288.891 34.824 288.165 34.568 287.824 34.056C288.08 33.416 288.208 32.4987 288.208 31.304C288.208 30.1093 287.803 29.0213 286.992 28.04C286.181 27.0587 285.2 26.568 284.048 26.568C282.043 26.568 280.592 27.5493 279.696 29.512C278.843 31.4747 278.416 34.568 278.416 38.792C278.416 42.9733 279.227 46.0027 280.848 47.88C282.512 49.7573 284.816 50.696 287.76 50.696C290.704 50.696 293.179 49.8 295.184 48.008C297.189 46.1733 298.192 43.592 298.192 40.264C298.235 40.008 298.555 39.88 299.152 39.88ZM298.273 18.504C298.273 17.224 298.593 16.264 299.233 15.624C299.873 14.9413 300.684 14.6 301.665 14.6C302.647 14.6 303.436 14.8987 304.033 15.496V24.968H312.801C313.697 24.968 314.273 25.1387 314.529 25.48C314.828 25.8213 314.977 26.3973 314.977 27.208H304.033V43.336C304.033 45.6827 304.695 47.496 306.017 48.776C307.383 50.056 308.94 50.696 310.689 50.696C313.335 50.696 315.276 49.7147 316.513 47.752C317.751 45.7893 318.369 42.6107 318.369 38.216C318.455 37.96 318.775 37.832 319.329 37.832C320.097 37.832 320.481 38.9627 320.481 41.224C320.481 44.68 319.607 47.5387 317.857 49.8C316.151 52.0613 313.505 53.192 309.921 53.192C306.337 53.192 303.5 52.2533 301.409 50.376C299.319 48.4987 298.273 45.704 298.273 41.992V18.504Z" fill="black"/>
</svg>
